name Walk2.mot
datacolumns 19
datarows 30
range 0.91100000 0.94000000
endheader

                time	   L_ground_force_vx	   L_ground_force_vy	   L_ground_force_vz	   L_ground_force_px	   L_ground_force_py	   L_ground_force_pz	   R_ground_force_vx	   R_ground_force_vy	   R_ground_force_vz	   R_ground_force_px	   R_ground_force_py	   R_ground_force_pz	   L_ground_torque_x	   L_ground_torque_y	   L_ground_torque_z	   R_ground_torque_x	   R_ground_torque_y	   R_ground_torque_z	
          0.91100000	        -11.46212438	        112.54493399	         -9.22167840	         -0.10234267	          0.00000000	         -0.00531539	          0.00000001	          0.00000003	          0.00000001	          0.00000000	          0.00000000	          0.00000000	          0.00000000	          0.24349159	          0.00000000	          0.00000000	         -0.00000000	          0.00000000	
          0.91200000	        -12.40212224	        120.79762094	         -9.83796057	         -0.10824824	          0.00000000	         -0.00567288	          0.00000001	          0.00000004	          0.00000001	          0.00000000	          0.00000000	          0.00000000	          0.00000000	          0.26340576	          0.00000000	          0.00000000	         -0.00000000	          0.00000000	
          0.91300000	        -13.37824980	        129.31830591	        -10.47088089	         -0.11425554	          0.00000000	         -0.00604017	          0.00000001	          0.00000006	          0.00000001	          0.00000000	          0.00000000	          0.00000000	          0.00000000	          0.28408261	          0.00000000	          0.00000000	         -0.00000000	          0.00000000	
          0.91400000	        -14.38983310	        138.09670296	        -11.11937158	         -0.12034919	          0.00000000	         -0.00641664	          0.00000001	          0.00000008	          0.00000001	          0.00000000	          0.00000000	          0.00000000	          0.00000000	          0.30550762	          0.00000000	          0.00000000	         -0.00000000	          0.00000000	
          0.91500000	        -15.43598910	        147.12050601	        -11.78220128	         -0.12651207	          0.00000000	         -0.00680159	          0.00000001	          0.00000010	          0.00000001	          0.00000000	          0.00000000	          0.00000000	          0.00000000	          0.32766183	          0.00000000	          0.00000000	         -0.00000000	          0.00000000	
          0.91600000	        -16.51560995	        156.37525195	        -12.45796504	         -0.13272516	          0.00000000	         -0.00719423	          0.00000001	          0.00000012	          0.00000002	          0.00000000	          0.00000000	          0.00000000	          0.00000000	          0.35052151	          0.00000000	          0.00000000	         -0.00000000	          0.00000000	
          0.91700000	        -17.62734664	        165.84417988	        -13.14507391	         -0.13896745	          0.00000000	         -0.00759364	          0.00000001	          0.00000015	          0.00000002	          0.00000000	          0.00000000	          0.00000000	          0.00000000	          0.37405780	          0.00000000	          0.00000000	         -0.00000000	          0.00000000	
          0.91800000	        -18.76959649	        175.50809951	        -13.84174468	         -0.14521614	          0.00000000	         -0.00799880	          0.00000001	          0.00000018	          0.00000002	          0.00000000	          0.00000000	          0.00000000	          0.00000000	          0.39823660	          0.00000000	          0.00000000	         -0.00000000	          0.00000000	
          0.91900000	        -19.94050575	        185.34531045	        -14.54599040	         -0.15144757	          0.00000000	         -0.00840853	          0.00000001	          0.00000020	          0.00000002	          0.00000000	          0.00000000	          0.00000000	          0.00000000	          0.42301905	          0.00000000	          0.00000000	         -0.00000000	          0.00000000	
          0.92000000	        -21.13799160	        195.33161814	        -15.25561199	         -0.15763873	          0.00000000	         -0.00882155	          0.00000001	          0.00000023	          0.00000003	          0.00000000	          0.00000000	          0.00000000	          0.00000000	          0.44836258	          0.00000000	          0.00000000	         -0.00000000	          0.00000000	
          0.92100000	        -22.35977475	        205.44046749	        -15.96819091	         -0.16376828	          0.00000000	         -0.00923648	          0.00000001	          0.00000026	          0.00000003	          0.00000000	          0.00000000	          0.00000000	          0.00000000	          0.47422168	          0.00000000	          0.00000000	         -0.00000000	          0.00000000	
          0.92200000	        -23.60341878	        215.64321348	        -16.68108314	         -0.16981683	          0.00000000	         -0.00965194	          0.00000001	          0.00000030	          0.00000003	          0.00000000	          0.00000000	          0.00000000	          0.00000000	          0.50054798	          0.00000000	          0.00000000	         -0.00000000	          0.00000000	
          0.92300000	        -24.86638122	        225.90955534	        -17.39141565	         -0.17576684	          0.00000000	         -0.01006664	          0.00000001	          0.00000033	          0.00000003	          0.00000000	          0.00000000	          0.00000000	          0.00000000	          0.52729025	          0.00000000	          0.00000000	         -0.00000000	          0.00000000	
          0.92400000	        -26.14607720	        236.20813732	        -18.09608762	         -0.18160261	          0.00000000	         -0.01047941	          0.00000001	          0.00000037	          0.00000004	          0.00000000	          0.00000000	          0.00000000	          0.00000000	          0.55439453	          0.00000000	          0.00000000	         -0.00000000	          0.00000000	
          0.92500000	        -27.43994932	        246.50727640	        -18.79177877	         -0.18731017	          0.00000000	         -0.01088916	          0.00000000	          0.00000041	          0.00000004	          0.00000000	          0.00000000	          0.00000000	          0.00000000	          0.58180449	          0.00000000	          0.00000000	         -0.00000000	          0.00000000	
          0.92600000	        -28.74553393	        256.77573563	        -19.47496795	         -0.19287717	          0.00000000	         -0.01129498	          0.00000000	          0.00000045	          0.00000004	          0.00000000	          0.00000000	          0.00000000	          0.00000000	          0.60946231	          0.00000000	          0.00000000	         -0.00000000	          0.00000000	
          0.92700000	        -30.06051394	        266.98343942	        -20.14196368	         -0.19829285	          0.00000000	         -0.01169605	          0.00000000	          0.00000049	          0.00000005	          0.00000000	          0.00000000	          0.00000000	          0.00000000	          0.63731004	          0.00000000	          0.00000000	         -0.00000000	          0.00000000	
          0.92800000	        -31.38275205	        277.10203602	        -20.78894657	         -0.20354787	          0.00000000	         -0.01209171	          0.00000000	          0.00000053	          0.00000005	          0.00000000	          0.00000000	          0.00000000	          0.00000000	          0.66529108	          0.00000000	          0.00000000	         -0.00000000	          0.00000000	
          0.92900000	        -32.71030307	        287.10525177	        -21.41202136	         -0.20863432	          0.00000000	         -0.01248141	         -0.00000000	          0.00000058	          0.00000005	          0.00000000	          0.00000000	          0.00000000	          0.00000000	          0.69335151	          0.00000000	          0.00000000	         -0.00000000	          0.00000000	
          0.93000000	        -34.04140762	        296.96903322	        -22.00727496	         -0.21354553	          0.00000000	         -0.01286469	         -0.00000000	          0.00000063	          0.00000006	          0.00000000	          0.00000000	          0.00000000	          0.00000000	          0.72144053	          0.00000000	          0.00000000	         -0.00000000	          0.00000000	
          0.93100000	        -35.37447174	        306.67151778	        -22.57083690	         -0.21827607	          0.00000000	         -0.01324122	         -0.00000001	          0.00000068	          0.00000006	          0.00000000	          0.00000000	          0.00000000	          0.00000000	          0.74951007	          0.00000000	          0.00000000	         -0.00000000	          0.00000000	
          0.93200000	        -36.70803816	        316.19289830	        -23.09893897	         -0.22282163	          0.00000000	         -0.01361075	         -0.00000001	          0.00000073	          0.00000007	          0.00000000	          0.00000000	          0.00000000	          0.00000000	          0.77751337	          0.00000000	          0.00000000	         -0.00000000	          0.00000000	
          0.93300000	        -38.04075427	        325.51524989	        -23.58797175	         -0.22717892	          0.00000000	         -0.01397310	         -0.00000001	          0.00000079	          0.00000007	          0.00000000	          0.00000000	          0.00000000	          0.00000000	          0.80540332	          0.00000000	          0.00000000	         -0.00000000	          0.00000000	
          0.93400000	        -39.37134196	        334.62237449	        -24.03453618	         -0.23134565	          0.00000000	         -0.01432817	         -0.00000001	          0.00000084	          0.00000008	          0.00000000	          0.00000000	          0.00000000	          0.00000000	          0.83313080	          0.00000000	          0.00000000	         -0.00000000	          0.00000000	
          0.93500000	        -40.69857277	        343.49969811	        -24.43548869	         -0.23532038	          0.00000000	         -0.01467590	         -0.00000002	          0.00000090	          0.00000008	          0.00000000	          0.00000000	          0.00000000	          0.00000000	          0.86064356	          0.00000000	          0.00000000	         -0.00000000	          0.00000000	
          0.93600000	        -42.02125116	        352.13423386	        -24.78797883	         -0.23910251	          0.00000000	         -0.01501631	         -0.00000002	          0.00000096	          0.00000008	          0.00000000	          0.00000000	          0.00000000	          0.00000000	          0.88788587	          0.00000000	          0.00000000	         -0.00000000	          0.00000000	
          0.93700000	        -43.33820744	        360.51460648	        -25.08947858	         -0.24269218	          0.00000000	         -0.01534943	         -0.00000002	          0.00000102	          0.00000009	          0.00000000	          0.00000000	          0.00000000	          0.00000000	          0.91479906	          0.00000000	          0.00000000	         -0.00000000	          0.00000000	
          0.93800000	        -44.64830084	        368.63112291	        -25.33780285	         -0.24609019	          0.00000000	         -0.01567535	         -0.00000003	          0.00000108	          0.00000009	          0.00000000	          0.00000000	          0.00000000	          0.00000000	          0.94132250	          0.00000000	          0.00000000	         -0.00000000	          0.00000000	
          0.93900000	        -45.95043205	        376.47586822	        -25.53112106	         -0.24929798	          0.00000000	         -0.01599421	         -0.00000003	          0.00000114	          0.00000010	          0.00000000	          0.00000000	          0.00000000	          0.00000000	          0.96739496	          0.00000000	          0.00000000	         -0.00000000	          0.00000000	
          0.94000000	        -47.24356337	        384.04280577	        -25.66796040	         -0.25231755	          0.00000000	         -0.01630615	         -0.00000003	          0.00000121	          0.00000010	          0.00000000	          0.00000000	          0.00000000	          0.00000000	          0.99295576	          0.00000000	          0.00000000	         -0.00000000	          0.00000000	
